<?xml version="1.0" encoding="UTF-8"?>
<!DOCTYPE svg PUBLIC "-//W3C//DTD SVG 1.1//EN" "http://www.w3.org/Graphics/SVG/1.1/DTD/svg11.dtd">
<!-- Creator: CorelDRAW X8 -->
<svg xmlns="http://www.w3.org/2000/svg" xml:space="preserve" width="19.4511mm" height="19.4511mm" version="1.1" style="shape-rendering:geometricPrecision; text-rendering:geometricPrecision; image-rendering:optimizeQuality; fill-rule:evenodd; clip-rule:evenodd"
viewBox="0 0 556 556"
 xmlns:xlink="http://www.w3.org/1999/xlink">
 <defs>
  <style type="text/css">
   <![CDATA[
    .str0 {stroke:#B89172;stroke-width:11.5046}
    .fil1 {fill:none}
    .fil0 {fill:#B89172;fill-rule:nonzero}
   ]]>
  </style>
 </defs>
 <g id="Ebene_x0020_1">
  <metadata id="CorelCorpID_0Corel-Layer"/>
  <g id="_2315559306688">
   <path class="fil0" d="M130 160c0,0 -8,5 -23,16 -9,6 -16,11 -23,14 -1,0 -2,0 -2,0 -2,0 -4,-1 -5,-3 -3,-3 -4,-5 -4,-5 0,-11 0,-27 2,-48 2,-21 3,-37 3,-47 0,-6 0,-13 -1,-18 2,-2 4,-3 7,-3 4,0 7,2 8,5 0,11 0,27 -1,48 -2,22 -2,37 -2,48 4,-1 9,-4 14,-8 7,-4 11,-7 14,-9 1,0 2,0 4,0 1,0 2,-1 3,-1 3,0 5,1 6,3 1,3 1,6 0,8z"/>
   <path id="1" class="fil0" d="M194 58c1,5 0,8 -1,9 -2,2 -4,3 -7,3 -3,-1 -5,-2 -8,-4 -2,-2 -3,-5 -3,-7 0,-2 1,-3 2,-4 1,-2 2,-3 4,-2 2,0 5,0 7,0 3,1 5,2 6,5zm-33 0c1,5 1,8 -1,9 -2,2 -4,3 -7,3 -2,-1 -5,-2 -7,-4 -2,-2 -4,-5 -4,-7 0,-2 1,-3 2,-4 2,-2 3,-3 4,-2 5,0 8,0 8,0 3,1 4,2 5,5zm41 82c-8,17 -19,28 -33,31 -2,0 -3,1 -5,1 -7,0 -15,-4 -22,-12 -5,-6 -8,-13 -8,-22 0,-9 3,-20 9,-31 2,-4 5,-8 9,-12 4,-4 7,-6 11,-6 2,0 4,1 6,3 2,1 7,3 14,6 7,2 11,5 14,10 4,9 7,16 7,23 0,3 -1,6 -2,9zm-16 -12c-1,-9 -3,-15 -8,-17 0,0 -1,0 -1,0 -2,0 -4,1 -6,4 -3,3 -5,4 -6,5 -1,0 -2,0 -4,-1 -2,-1 -3,-2 -3,-2 -1,0 -1,0 -1,0 -5,4 -7,10 -7,19 0,5 1,10 4,14 3,5 6,8 9,8 6,0 11,-4 16,-11 5,-7 8,-13 7,-19z"/>
   <path id="2" class="fil0" d="M297 59c0,2 -1,5 -3,7 -1,2 -4,3 -6,4 -1,0 -3,0 -4,-1 -2,-1 -4,-1 -5,-1 -5,0 -12,2 -21,6 -10,4 -17,7 -20,8 -1,8 -1,16 -1,25 0,8 0,17 1,25 1,0 2,0 3,0 3,0 7,-1 14,-3 6,-2 11,-2 15,-2 2,0 4,2 3,3 0,6 -4,9 -9,12 -6,2 -11,4 -16,5 -2,1 -6,1 -10,2 -1,3 -1,6 -1,9 0,3 0,8 1,14 0,7 0,11 0,15 0,11 -2,20 -5,26 -1,1 -2,2 -4,2 -1,0 -3,-1 -4,-2 -2,-1 -3,-3 -4,-5 -1,-4 -2,-8 -2,-14 0,-1 1,-8 2,-19 0,-7 0,-14 -1,-18 0,-2 -1,-3 -4,-5 -3,-1 -5,-2 -5,-3 -1,-1 -1,-3 0,-7 2,0 3,-1 4,-2 1,-1 2,-2 3,-2 1,0 1,0 2,0 1,-6 2,-13 2,-21 0,-3 -1,-13 -2,-30 -2,-1 -5,-3 -7,-5 -2,-2 -4,-5 -4,-7 0,-3 3,-5 7,-6 7,-1 18,-4 36,-10 15,-5 27,-7 36,-7 2,0 4,0 6,2 2,1 3,3 3,5z"/>
   <path id="3" class="fil0" d="M371 59c0,2 -1,5 -2,7 -2,2 -4,3 -7,4 -1,0 -2,0 -4,-1 -2,-1 -3,-1 -4,-1 -6,0 -13,2 -21,6 -11,4 -18,7 -21,8 -1,8 -1,16 -1,25 0,8 0,17 1,25 1,0 2,0 3,0 3,0 8,-1 14,-3 7,-2 12,-2 15,-2 3,0 4,2 4,3 -1,6 -4,9 -10,12 -5,2 -11,4 -16,5 -2,1 -5,1 -10,2 0,3 0,6 0,9 0,3 0,8 0,14 0,7 1,11 1,15 0,11 -2,20 -6,26 0,1 -2,2 -3,2 -2,0 -3,-1 -5,-2 -2,-1 -3,-3 -3,-5 -2,-4 -2,-8 -2,-14 0,-1 0,-8 1,-19 1,-7 1,-14 0,-18 -1,-2 -2,-3 -4,-5 -3,-1 -5,-2 -6,-3 0,-1 0,-3 1,-7 1,0 2,-1 4,-2 1,-1 2,-2 3,-2 0,0 1,0 1,0 2,-6 2,-13 2,-21 0,-3 0,-13 -1,-30 -3,-1 -5,-3 -8,-5 -2,-2 -3,-5 -3,-7 0,-3 2,-5 7,-6 6,-1 18,-4 35,-10 15,-5 27,-7 36,-7 3,0 5,0 6,2 2,1 3,3 3,5z"/>
   <path id="4" class="fil0" d="M426 85c-5,2 -12,4 -21,7 -10,2 -17,5 -22,7 -1,3 -2,10 -2,22 2,1 4,1 7,1 2,0 5,0 9,-1 4,0 8,-1 9,-1 4,0 7,1 10,3 2,2 3,4 3,5 0,1 -1,1 -2,2 0,0 -1,1 -3,3 -1,1 -2,1 -3,1 -3,1 -8,1 -15,1 -7,0 -11,1 -15,3 -3,9 -4,17 -4,22 0,4 1,7 2,9 6,5 16,7 32,6 1,0 2,-1 3,-2 1,-1 2,-1 3,-1 3,-1 6,2 7,8 0,2 0,4 -1,6 -1,2 -3,3 -5,3 -16,0 -29,-1 -41,-4 -3,-1 -7,-3 -10,-6 -3,-3 -4,-7 -5,-11 -1,-11 -1,-21 0,-30 -3,-2 -5,-5 -5,-7 1,-1 2,-2 3,-3 2,-1 3,-2 4,-3 0,-1 0,-8 1,-19 -7,-1 -11,-4 -11,-8 1,-4 3,-7 7,-9 4,-2 9,-3 13,-5 5,-3 11,-5 18,-7 6,-1 13,-3 19,-5 1,0 1,0 2,0 4,0 8,2 13,4 0,1 0,2 1,3 0,2 0,3 0,3 0,1 0,2 -1,3z"/>
   <path id="5" class="fil0" d="M487 160c-1,0 -8,5 -23,16 -9,6 -17,11 -23,14 -1,0 -2,0 -3,0 -2,0 -3,-1 -5,-3 -2,-3 -3,-5 -4,-5 0,-11 1,-27 3,-48 2,-21 3,-37 3,-47 0,-6 -1,-13 -1,-18 1,-2 4,-3 6,-3 5,0 8,2 9,5 0,11 0,27 -2,48 -1,22 -1,37 -1,48 3,-1 8,-4 14,-8 6,-4 11,-7 14,-9 1,0 2,0 3,0 2,0 3,-1 4,-1 2,0 4,1 6,3 1,3 1,6 0,8z"/>
   <path id="6" class="fil0" d="M158 235c3,2 5,4 5,6 0,2 -1,5 -3,8 -2,4 -3,6 -3,7 -3,9 -6,24 -9,44 -2,19 -5,34 -8,43 -1,3 -3,4 -7,4 -1,0 -3,-1 -4,-1 -5,-3 -9,-7 -11,-15 0,0 -1,-7 -3,-19 -1,-7 -3,-14 -4,-21 -1,4 -4,13 -7,27 -2,13 -5,21 -9,24 -1,1 -3,1 -5,0 -4,0 -7,-3 -8,-7 -1,-3 -2,-7 -3,-11 -2,-9 -4,-23 -5,-43 -1,-20 -3,-34 -6,-43 0,-2 0,-4 1,-5 1,-1 2,-2 3,-2 1,-1 2,-1 3,-1 4,0 7,2 9,5 2,11 4,32 7,64 1,-2 2,-6 4,-12 1,-7 2,-11 4,-14 1,-5 2,-9 3,-14 2,-6 5,-9 10,-9 1,0 2,0 4,0 0,1 1,1 2,2 1,0 1,0 2,0 2,7 5,15 6,26 2,15 4,23 4,26 2,-12 4,-23 7,-35 2,-13 6,-24 10,-32 1,-2 3,-3 6,-3 2,0 4,0 5,1z"/>
   <path id="7" class="fil0" d="M261 238c-5,2 -12,4 -22,7 -9,3 -16,5 -21,7 -1,3 -2,11 -2,22 2,1 4,2 7,2 2,0 5,-1 9,-1 4,-1 7,-1 9,-1 4,0 7,0 10,2 1,3 2,4 2,5 0,1 0,2 -1,2 0,0 -1,1 -3,3 -1,1 -2,2 -4,1 -2,1 -7,1 -15,2 -6,0 -11,0 -14,2 -3,10 -4,17 -4,23 0,3 1,6 2,9 6,4 16,6 31,5 1,0 2,0 4,-1 1,-1 2,-2 3,-2 3,-1 6,2 7,8 0,2 0,4 -1,6 -1,2 -3,3 -5,3 -16,0 -29,-1 -41,-4 -4,-1 -7,-3 -10,-6 -3,-3 -5,-6 -5,-10 -1,-12 -1,-22 0,-31 -4,-2 -5,-5 -5,-7 0,-1 1,-2 3,-3 2,-1 3,-2 3,-3 1,-1 1,-7 2,-19 -7,-1 -11,-4 -11,-8 0,-4 3,-7 7,-9 4,-1 8,-3 12,-5 5,-2 12,-5 19,-6 6,-2 12,-4 19,-5 0,0 1,-1 2,-1 4,0 8,2 12,5 0,0 1,1 1,2 1,2 1,3 1,4 0,1 0,1 -1,2z"/>
   <path id="8" class="fil0" d="M310 237c0,4 0,8 0,12 0,8 0,22 -2,40 -2,17 -3,31 -3,40 0,3 0,7 0,10 -1,3 -4,5 -7,5 -6,0 -9,-3 -10,-7 0,-5 0,-9 0,-15 0,-8 1,-22 3,-39 2,-18 3,-31 3,-39 0,-4 0,-7 0,-10 1,-3 3,-4 6,-4 3,0 5,1 8,2 0,0 1,-1 1,-1 0,0 0,1 0,2 0,2 0,3 0,3 1,1 1,1 1,1z"/>
   <path id="9" class="fil0" d="M386 218c0,2 -2,5 -6,6 -1,1 -2,1 -3,1 -2,-1 -3,-1 -3,-1 -1,0 -2,0 -3,1 -7,7 -10,16 -10,26 0,4 0,7 2,10 0,2 5,12 14,30 7,13 10,24 10,32 0,7 -2,14 -6,21 -1,2 -4,5 -8,8 -4,3 -7,5 -10,5 -2,0 -3,-1 -4,-1 -4,-2 -6,-4 -6,-6 0,-2 1,-4 3,-6 1,-1 2,-1 4,-1 2,0 3,-1 4,-3 3,-5 4,-11 4,-17 0,-9 -4,-21 -13,-37 -8,-16 -12,-29 -12,-38 0,-8 1,-15 5,-22 3,-7 8,-12 15,-15 3,-1 5,-2 8,-2 6,0 10,1 13,4 1,2 2,3 2,5z"/>
   <path id="10" class="fil0" d="M488 238c-5,2 -12,4 -22,7 -9,3 -16,5 -21,7 -1,3 -2,11 -2,22 2,1 4,2 7,2 2,0 5,-1 9,-1 4,-1 7,-1 9,-1 4,0 7,0 10,2 1,3 2,4 2,5 0,1 0,2 -1,2 0,0 -1,1 -3,3 -1,1 -2,2 -4,1 -2,1 -7,1 -15,2 -6,0 -11,0 -14,2 -3,10 -4,17 -4,23 0,3 1,6 2,9 6,4 16,6 31,5 1,0 2,0 4,-1 1,-1 2,-2 3,-2 3,-1 6,2 7,8 0,2 0,4 -1,6 -1,2 -3,3 -5,3 -16,0 -29,-1 -41,-4 -4,-1 -7,-3 -10,-6 -3,-3 -5,-6 -5,-10 -1,-12 -1,-22 0,-31 -4,-2 -5,-5 -5,-7 0,-1 1,-2 3,-3 2,-1 3,-2 3,-3 1,-1 1,-7 2,-19 -7,-1 -11,-4 -11,-8 0,-4 3,-7 7,-9 4,-1 8,-3 12,-5 5,-2 12,-5 19,-6 6,-2 12,-4 19,-5 0,0 1,-1 2,-1 4,0 8,2 12,5 0,0 1,1 1,2 1,2 1,3 1,4 0,1 0,1 -1,2z"/>
   <path id="11" class="fil0" d="M144 440c-3,9 -6,19 -7,32 0,11 -1,22 -1,33 -1,4 -3,5 -7,5 -1,0 -2,0 -3,0 -6,-3 -9,-7 -9,-13 0,-2 1,-5 1,-9 1,-3 1,-6 1,-8 1,-4 1,-9 2,-17 -9,9 -19,15 -30,19 -2,1 -4,1 -5,1 -6,0 -12,-4 -17,-10 -3,-4 -4,-9 -4,-14 0,-5 1,-11 3,-18 7,-21 18,-41 33,-61 8,-10 14,-15 20,-15 6,0 8,2 9,5 1,4 -1,6 -3,8 -5,2 -7,3 -7,4 -11,12 -21,27 -30,46 -6,12 -9,23 -9,32 0,2 0,3 0,5 1,0 1,1 2,2 0,1 1,1 2,1 8,-3 21,-12 38,-27 2,-1 3,-4 5,-9 1,-3 4,-5 7,-5 -1,0 0,0 3,0 2,-1 3,0 3,0 3,4 4,7 4,9 0,1 0,3 -1,4z"/>
   <path id="12" class="fil0" d="M232 466c-1,0 -8,6 -23,16 -9,7 -16,11 -23,14 -1,1 -2,1 -3,1 -1,0 -3,-1 -5,-4 -2,-3 -3,-4 -3,-4 -1,-12 0,-28 2,-48 2,-22 3,-38 3,-47 0,-7 -1,-13 -1,-19 2,-2 4,-3 6,-3 5,0 8,2 9,6 0,11 0,26 -1,48 -2,21 -2,37 -2,48 4,-2 8,-5 14,-9 7,-4 11,-7 14,-8 1,0 2,-1 4,-1 1,0 2,0 3,0 3,0 5,1 6,3 1,3 1,5 0,7z"/>
   <path id="13" class="fil0" d="M316 355c1,5 1,8 0,10 -2,2 -5,2 -8,2 -2,0 -4,-1 -7,-3 -2,-3 -3,-5 -3,-7 0,-2 0,-3 2,-5 1,-1 2,-2 4,-2 5,1 7,1 7,1 3,0 5,2 5,4zm-32 0c1,5 1,8 -1,10 -2,2 -4,2 -7,2 -3,0 -5,-1 -7,-3 -3,-3 -4,-5 -4,-7 0,-2 1,-3 2,-5 1,-1 3,-2 4,-2 3,0 5,1 7,1 3,0 5,2 6,4zm42 28c-1,9 -4,21 -8,36 -6,20 -9,33 -10,37 -3,13 -8,25 -16,36 -6,7 -11,10 -18,10 -6,0 -10,-4 -13,-11 -5,-12 -7,-27 -7,-43 0,-10 0,-22 2,-37 0,1 0,-3 0,-12 0,-8 3,-12 9,-12 2,0 3,0 5,1 1,1 3,2 4,2 0,7 0,17 -1,30 0,13 -1,23 -1,29 0,7 1,13 1,18 0,3 1,8 4,16 5,-6 9,-15 12,-25 1,-3 4,-12 7,-27 2,-12 5,-21 8,-27 1,-2 2,-5 2,-11 1,-5 2,-8 3,-10 1,-3 4,-5 7,-5 5,0 8,2 10,5z"/>
   <path id="14" class="fil0" d="M403 371c0,4 -2,6 -7,7 -6,1 -10,2 -11,4 -15,15 -22,35 -22,59 0,12 2,23 6,33 3,8 5,13 6,16 3,6 7,11 12,14 2,1 4,1 6,2 2,1 3,3 3,5 0,2 -1,4 -2,6 -1,1 -3,2 -4,2 -2,-1 -5,-1 -8,-3 -7,-3 -13,-11 -21,-23 -1,-3 -3,-6 -5,-9 -2,-3 -3,-6 -4,-9 -1,-2 -2,-11 -4,-25 0,-5 0,-9 0,-14 0,-23 6,-42 20,-58 7,-10 16,-14 24,-14 4,0 7,1 10,3 1,1 1,2 1,4z"/>
   <path id="15" class="fil0" d="M486 478c1,1 1,2 1,3 0,1 0,2 -1,6 -1,-1 -1,-1 -2,-1 -1,0 -2,1 -3,1 -1,1 -2,1 -3,1 0,0 -1,0 -2,0 -9,-6 -22,-14 -40,-25 0,5 0,12 1,21 0,1 0,2 0,4 0,2 0,4 0,5 0,3 -1,5 -4,6 0,1 -2,1 -3,1 -2,0 -3,0 -3,-1 -3,-2 -5,-4 -6,-7 -1,-10 -2,-20 -2,-33 0,-5 0,-11 0,-20 1,-9 1,-16 1,-21 0,-14 -1,-26 -3,-36 0,-1 1,-2 3,-3 1,0 3,0 5,-1 1,1 3,2 5,2 2,1 3,2 3,4 2,17 3,31 2,42 6,-5 12,-11 19,-19 5,-7 11,-14 17,-20 1,-1 3,-1 5,-1 5,0 8,1 8,5 -4,8 -11,18 -21,29 -13,12 -21,22 -24,27 8,5 16,10 24,14 9,6 17,12 23,17z"/>
   <rect class="fil1 str0" x="6" y="6" width="545" height="545"/>
  </g>
 </g>
</svg>
